<?xml version="1.0" standalone="no"?>
<!DOCTYPE svg PUBLIC "-//W3C//DTD SVG 20010904//EN"
 "http://www.w3.org/TR/2001/REC-SVG-20010904/DTD/svg10.dtd">
<svg version="1.0" xmlns="http://www.w3.org/2000/svg"
 width="1592.000000pt" height="1592.000000pt" viewBox="0 0 1592.000000 1592.000000"
 preserveAspectRatio="xMidYMid meet">
<metadata>
Created by potrace 1.14, written by Peter Selinger 2001-2017
</metadata>
<g transform="translate(0.000000,1592.000000) scale(0.100000,-0.100000)"
fill="#000000" stroke="none">
<path d="M6926 12748 c-3 -13 -7 -43 -11 -66 -11 -83 -64 -150 -180 -229 -51
-35 -182 -98 -245 -118 -232 -74 -556 -240 -735 -375 -36 -27 -65 -47 -65 -45
0 2 9 43 20 90 26 111 26 115 -8 115 -75 0 -330 -103 -451 -181 -172 -113
-337 -336 -381 -515 l-13 -51 -69 -28 c-138 -53 -256 -140 -332 -243 -75 -103
-164 -308 -181 -416 -23 -144 -26 -330 -7 -443 5 -29 7 -53 4 -53 -3 0 -29 18
-59 41 -59 44 -104 100 -132 165 -10 23 -23 44 -29 47 -15 10 -38 -23 -51 -73
-6 -25 -25 -97 -42 -160 -69 -265 -37 -475 96 -626 l42 -48 -48 -101 c-26 -55
-65 -149 -85 -210 -35 -102 -38 -119 -40 -240 -1 -71 2 -155 7 -185 39 -221
63 -324 97 -405 12 -31 16 -78 17 -215 2 -191 14 -279 67 -460 36 -126 95
-285 132 -358 15 -30 26 -55 24 -56 -2 -2 -34 -12 -72 -25 -168 -54 -278 -192
-328 -413 -23 -102 -30 -344 -15 -488 4 -41 10 -97 13 -125 34 -307 180 -636
414 -929 103 -130 162 -182 258 -227 86 -41 230 -79 305 -79 20 0 37 -2 37 -5
0 -2 14 -69 31 -147 17 -79 33 -154 35 -168 3 -14 14 -70 25 -125 25 -120 22
-106 48 -235 52 -257 145 -465 303 -677 187 -251 533 -596 800 -797 74 -55 87
-76 50 -76 -34 0 -317 -102 -418 -151 -118 -57 -228 -128 -294 -191 -49 -46 4
-28 -685 -240 -508 -156 -551 -169 -645 -194 -120 -31 -270 -90 -270 -105 0
-6 131 -95 200 -137 665 -393 1170 -616 1820 -801 625 -179 1200 -260 1880
-266 470 -4 740 13 1135 71 642 95 1191 253 1825 524 124 53 407 192 545 267
235 128 575 337 575 353 0 23 -546 197 -1300 413 l-155 45 -70 67 c-85 82
-204 162 -316 214 -101 46 -295 112 -402 135 l-78 17 98 78 c211 166 355 299
525 483 51 56 98 106 103 112 81 84 275 355 275 382 0 8 5 14 10 14 6 0 10 7
10 15 0 8 8 29 18 47 22 38 78 182 98 248 13 43 48 204 58 265 3 17 15 73 26
125 11 52 23 106 25 120 3 14 7 34 9 45 9 45 48 221 51 235 2 8 4 20 4 26 1 6
32 14 74 17 157 14 313 77 407 164 70 64 201 231 276 349 153 244 245 511 269
784 3 36 8 76 11 89 6 28 6 316 0 346 -5 28 -17 114 -16 117 0 2 -11 36 -24
76 -51 150 -134 255 -241 308 -30 14 -55 30 -55 36 0 5 9 26 19 46 48 95 70
187 121 512 38 242 34 215 65 400 33 199 31 189 52 300 18 103 24 362 10 460
l-8 56 49 17 c57 21 155 89 215 151 61 62 107 130 98 145 -4 6 -34 19 -67 27
-76 20 -173 66 -201 96 -19 20 -21 28 -12 63 5 22 8 82 8 133 -1 77 -7 110
-34 190 -18 53 -37 117 -41 142 -4 25 -8 47 -9 50 -1 3 -5 25 -9 50 -32 199
-185 444 -361 580 l-55 42 26 42 c66 106 101 211 124 369 18 123 7 131 -87 63
-33 -24 -78 -53 -99 -64 -95 -49 -232 -70 -313 -50 -40 10 -41 11 -41 55 0
189 -164 429 -410 602 -116 80 -328 189 -513 261 -134 53 -139 55 -179 110
-95 125 -238 238 -393 311 -98 45 -192 72 -327 94 -80 12 -113 23 -192 65
-431 227 -998 203 -1562 -65 l-131 -62 -22 41 c-41 78 -133 169 -211 209 -84
43 -108 46 -114 15z"/>
</g>
</svg>
